<?xml version="1.0" encoding="utf-8"?>
<!-- Generator: Adobe Illustrator 18.0.0, SVG Export Plug-In . SVG Version: 6.00 Build 0)  -->
<!DOCTYPE svg PUBLIC "-//W3C//DTD SVG 1.1//EN" "http://www.w3.org/Graphics/SVG/1.1/DTD/svg11.dtd">
<svg version="1.1" xmlns="http://www.w3.org/2000/svg" xmlns:xlink="http://www.w3.org/1999/xlink" x="0px" y="0px"
	 viewBox="0 0 76.3 143.2" enable-background="new 0 0 76.3 143.2" xml:space="preserve">
<g id="_1">
</g>
<g id="content">
	<g id="XMLID_52048_">
		<g id="XMLID_52049_">
			<g id="XMLID_52053_">
				<g id="XMLID_52058_">
					<g id="XMLID_52059_">
						<g id="XMLID_52060_">
							
								<rect id="XMLID_52061_" x="16.1" y="88.8" transform="matrix(-9.681952e-003 1 -1 -9.681952e-003 106.6929 72.5436)" fill="#20313D" width="2.7" height="0.6"/>
						</g>
					</g>
				</g>
			</g>
		</g>
	</g>
	<g id="XMLID_51944_">
		<g id="XMLID_51992_">
			<path id="XMLID_51996_" fill="#20313D" d="M65.6,135.9c0.5-1,0.8-2.2,0.8-3.7V39.4c0-5-3.1-10.9-6.8-13L24.3,6
				c-1.6-0.9-3.1-1-4.2-0.5l0,0c-2,0.7-3.8,2.4-3.8,2.4l1.3,2l0,0c0,0.4-0.1,0.8-0.1,1.2V104c0,5,3.1,10.9,6.8,13l35.2,20.3l1.2,2.4
				c0,0,3-0.6,4.7-3.6c0,0,0,0,0,0C65.5,136.1,65.6,136,65.6,135.9C65.6,135.9,65.6,135.9,65.6,135.9z"/>
			<path id="XMLID_51993_" fill="#20313D" d="M60.5,140.2l-1.3-2.6l-35.1-20.3c-3.9-2.2-7-8.2-7-13.4V11.2c0-0.4,0-0.7,0.1-1.1
				l-1.4-2.1L16,7.7c0.1-0.1,1.9-1.8,4-2.5l0,0c1.3-0.6,2.9-0.4,4.5,0.5L59.8,26c3.9,2.2,7,8.2,7,13.4v92.9c0,1.5-0.3,2.8-0.8,3.9
				l0,0.1c0,0.1-0.1,0.1-0.1,0.2c-1.8,3.2-4.9,3.8-5,3.8L60.5,140.2z M18,9.4L18,10c0,0.4-0.1,0.8-0.1,1.2V104
				c0,4.9,3,10.6,6.6,12.7l35.3,20.4l1.1,2.2c0.8-0.2,2.9-1,4.1-3.3c0-0.1,0.1-0.1,0.1-0.2l0-0.1l0.4,0.2l-0.4-0.2
				c0.5-1,0.7-2.1,0.7-3.5V39.4c0-4.9-3-10.6-6.6-12.7L24.1,6.3c-1.4-0.8-2.7-1-3.8-0.5L20.1,6l0,0c-1.4,0.5-2.7,1.6-3.3,2.1
				l0.9,1.4L18,9.4z"/>
		</g>
		<g id="XMLID_51987_">
			<path id="XMLID_51991_" fill="#FFFFFF" d="M56.6,139.3l-35.2-20.3c-3.8-2.2-6.8-8-6.8-13V13c0-5,3.1-7.3,6.8-5.2l35.2,20.3
				c3.8,2.2,6.8,8,6.8,13v92.8C63.4,139.1,60.3,141.4,56.6,139.3z"/>
			<path id="XMLID_51988_" fill="#20313D" d="M59.3,140.5c-0.9,0-1.9-0.3-2.9-0.9l-35.2-20.3c-3.9-2.2-7-8.2-7-13.4V13
				c0-2.8,0.9-4.9,2.6-5.9c1.4-0.8,3.1-0.7,4.9,0.4l35.2,20.3c3.9,2.2,7,8.2,7,13.4v92.9c0,2.8-0.9,4.9-2.6,5.9
				C60.6,140.3,60,140.5,59.3,140.5z M18.6,7.5c-0.6,0-1.1,0.1-1.5,0.4c-1.4,0.8-2.2,2.7-2.2,5.2v92.9c0,4.9,3,10.6,6.6,12.7
				l35.2,20.3c1.5,0.9,2.9,1,4.1,0.4c1.4-0.8,2.2-2.7,2.2-5.2V41.3c0-4.9-3-10.6-6.6-12.7L21.1,8.2C20.3,7.7,19.4,7.5,18.6,7.5z"/>
		</g>
		<g id="XMLID_51982_">
			<path id="XMLID_51986_" fill="#E6E7E8" d="M54.4,29.9l-2.6-1.5c-0.8-0.5-1.5-0.1-1.5,0.9l0,0c0,1-0.7,1.4-1.5,0.9L29.2,18.9
				c-0.8-0.5-1.5-1.7-1.5-2.7l0,0c0-1-0.7-2.2-1.5-2.7l-5.5-3.2c-1.9-1.1-3.4-0.2-3.4,2v93.9c0,4,2.9,9,6.3,11l33.8,19.5
				c1.9,1.1,3.4,0.2,3.4-2V40.9C60.8,36.9,57.9,31.9,54.4,29.9z"/>
			<path id="XMLID_51983_" fill="#20313D" d="M58.8,137.6c-0.5,0-1.1-0.2-1.7-0.5l-33.8-19.5c-3.6-2.1-6.5-7.2-6.5-11.3V12.4
				c0-1.2,0.4-2.1,1.2-2.6c0.8-0.5,1.8-0.4,2.8,0.2l5.5,3.2c1,0.6,1.7,1.9,1.7,3c0,0.8,0.6,1.9,1.3,2.3L49,29.8
				c0.3,0.2,0.5,0.2,0.7,0.1c0.2-0.1,0.2-0.3,0.2-0.6c0-0.6,0.2-1.1,0.7-1.3c0.4-0.2,1-0.2,1.5,0.1l2.6,1.5
				c3.6,2.1,6.5,7.2,6.5,11.3v93.9c0,1.2-0.4,2.1-1.2,2.6C59.6,137.5,59.2,137.6,58.8,137.6z M19.1,10.3c-0.3,0-0.5,0.1-0.7,0.2
				c-0.5,0.3-0.8,1-0.8,1.9v93.9c0,3.9,2.7,8.7,6.1,10.6l33.8,19.5c0.8,0.5,1.5,0.5,2,0.2c0.5-0.3,0.8-1,0.8-1.9V40.9
				c0-3.9-2.7-8.7-6.1-10.6l-2.6-1.5c-0.3-0.2-0.5-0.2-0.7-0.1c-0.2,0.1-0.2,0.3-0.2,0.6c0,0.6-0.2,1.1-0.7,1.3
				c-0.4,0.2-1,0.2-1.5-0.1L28.9,19.2c-1-0.6-1.7-1.9-1.7-3c0-0.8-0.6-1.9-1.3-2.3l-5.5-3.2C19.9,10.5,19.5,10.3,19.1,10.3z"/>
		</g>
		<g id="XMLID_51980_">
			<path id="XMLID_51981_" fill="#20313D" d="M33,18c0,0.6-0.4,0.8-0.9,0.5c-0.5-0.3-0.9-0.9-0.9-1.5c0-0.6,0.4-0.8,0.9-0.5
				C32.6,16.7,33,17.4,33,18z"/>
		</g>
		<g id="XMLID_51978_">
			<path id="XMLID_51979_" fill="#20313D" d="M45,25.9L34.8,20c-0.4-0.2-0.8-0.9-0.8-1.4l0,0c0-0.6,0.3-0.8,0.8-0.6L45,23.9
				c0.4,0.2,0.8,0.9,0.8,1.4l0,0C45.8,25.9,45.4,26.1,45,25.9z"/>
		</g>
		<g id="XMLID_51976_">
			
				<rect id="XMLID_51977_" x="62.9" y="31.6" transform="matrix(0.4905 0.8714 -0.8714 0.4905 61.0647 -38.1623)" fill="#FFFFFF" width="0.5" height="3.1"/>
		</g>
		<g id="XMLID_51974_">
			<path id="XMLID_51975_" fill="#FFFFFF" d="M21.2,7.8l-0.3-0.3c0-0.1,1.2-1.3,2.9-1.7l0.1,0.5C22.3,6.6,21.2,7.8,21.2,7.8z"/>
		</g>
		<g id="XMLID_51972_">
			<path id="XMLID_51973_" fill="#FFFFFF" d="M22.6,8.6l-0.3-0.3c0-0.1,1.2-1.3,2.9-1.7L25.3,7C23.7,7.4,22.6,8.6,22.6,8.6z"/>
		</g>
		<g id="XMLID_51970_">
			
				<rect id="XMLID_51971_" x="64.3" y="35.2" transform="matrix(0.4448 0.8957 -0.8957 0.4448 68.7285 -37.3638)" fill="#FFFFFF" width="0.5" height="3.1"/>
		</g>
		<g id="XMLID_51968_">
			<path id="XMLID_51969_" fill="#FFFFFF" d="M63.7,129.6l-0.2-0.4c0,0,1.7-0.9,2.7-1.8l0.3,0.3C65.5,128.7,63.8,129.6,63.7,129.6z"
				/>
		</g>
		<g id="XMLID_51966_">
			<path id="XMLID_51967_" fill="#FFFFFF" d="M63.7,134l-0.2-0.4c0,0,1.7-0.9,2.7-1.8l0.3,0.3C65.5,133.1,63.8,134,63.7,134z"/>
		</g>
		<g id="XMLID_51964_">
			<path id="XMLID_51965_" fill="#FFFFFF" d="M63.7,135.8l-0.2-0.4c0,0,1.7-0.9,2.7-1.8l0.3,0.3C65.5,134.9,63.8,135.8,63.7,135.8z"
				/>
		</g>
		<g id="XMLID_51960_">
			<path id="XMLID_51961_" fill="#FFFFFF" d="M64.5,80.5c-0.1,0-0.2,0-0.3-0.1c-0.2-0.1-0.4-0.4-0.4-0.8v-6.3c0-0.6,0.4-1.4,0.9-1.7
				l0.1-0.1c0.3-0.1,0.5-0.2,0.7,0c0.2,0.1,0.4,0.4,0.4,0.8v6.3c0,0.6-0.4,1.4-0.9,1.7l-0.1,0.1C64.8,80.5,64.7,80.5,64.5,80.5z
				 M65.2,72c-0.1,0-0.1,0-0.2,0.1l-0.1,0.1c-0.3,0.2-0.6,0.8-0.6,1.2v6.3c0,0.2,0.1,0.4,0.1,0.4c0.1,0,0.2,0,0.3,0l0.1-0.1
				c0.3-0.2,0.6-0.8,0.6-1.2v-6.3C65.5,72.2,65.4,72,65.2,72C65.3,72,65.3,72,65.2,72z"/>
		</g>
		<g id="XMLID_51956_">
			<path id="XMLID_51957_" fill="#FFFFFF" d="M64.5,70.4c-0.1,0-0.2,0-0.3-0.1c-0.2-0.1-0.4-0.4-0.4-0.8v-6.3c0-0.6,0.4-1.4,0.9-1.7
				l0.1-0.1c0.3-0.1,0.5-0.2,0.7,0c0.2,0.1,0.4,0.4,0.4,0.8v6.3c0,0.6-0.4,1.4-0.9,1.7l-0.1,0.1C64.8,70.4,64.7,70.4,64.5,70.4z
				 M65.2,61.9c-0.1,0-0.1,0-0.2,0.1L64.9,62c-0.3,0.2-0.6,0.8-0.6,1.2v6.3c0,0.2,0.1,0.4,0.1,0.4c0.1,0,0.2,0,0.3,0l0.1-0.1
				c0.3-0.2,0.6-0.8,0.6-1.2v-6.3C65.5,62.1,65.4,61.9,65.2,61.9C65.3,61.9,65.3,61.9,65.2,61.9z"/>
		</g>
		<g id="XMLID_51952_">
			<path id="XMLID_51953_" fill="#FFFFFF" d="M64.5,58.9c-0.1,0-0.2,0-0.3-0.1c-0.2-0.1-0.4-0.4-0.4-0.8v-3.5c0-0.6,0.4-1.4,0.9-1.7
				l0.1-0.1c0.3-0.1,0.5-0.2,0.7,0c0.2,0.1,0.4,0.4,0.4,0.8v3.5c0,0.6-0.4,1.4-0.9,1.7l-0.1,0.1C64.8,58.9,64.7,58.9,64.5,58.9z
				 M65.2,53.1c-0.1,0-0.1,0-0.2,0.1l-0.1,0.1c-0.3,0.2-0.6,0.8-0.6,1.2V58c0,0.2,0.1,0.4,0.1,0.4c0.1,0,0.2,0,0.3,0l0.1-0.1
				c0.3-0.2,0.6-0.8,0.6-1.2v-3.5C65.5,53.3,65.4,53.2,65.2,53.1C65.3,53.1,65.3,53.1,65.2,53.1z"/>
		</g>
		<g id="XMLID_51947_">
			<path id="XMLID_51951_" fill="#FFFFFF" d="M64.9,55.8l-0.1,0.1c-0.4,0.2-0.8,0-0.8-0.6v-0.8c0-0.6,0.3-1.2,0.8-1.5l0.1-0.1
				c0.4-0.2,0.8,0,0.8,0.6v0.8C65.7,54.9,65.4,55.5,64.9,55.8z"/>
			<path id="XMLID_51948_" fill="#FFFFFF" d="M64.5,56.2c-0.1,0-0.2,0-0.3-0.1c-0.2-0.1-0.4-0.4-0.4-0.8v-0.8c0-0.6,0.4-1.4,0.9-1.7
				l0.1-0.1c0.3-0.1,0.5-0.2,0.7,0c0.2,0.1,0.4,0.4,0.4,0.8v0.8c0,0.6-0.4,1.4-0.9,1.7L64.9,56C64.8,56.1,64.7,56.2,64.5,56.2z
				 M65.2,53.1c-0.1,0-0.1,0-0.2,0.1l-0.1,0.1c-0.3,0.2-0.6,0.8-0.6,1.2v0.8c0,0.2,0.1,0.4,0.1,0.4c0.1,0,0.2,0,0.3,0l0.1-0.1
				c0.3-0.2,0.6-0.8,0.6-1.2v-0.8C65.5,53.3,65.4,53.2,65.2,53.1C65.3,53.1,65.3,53.1,65.2,53.1z"/>
		</g>
		<g id="XMLID_51945_">
			
				<rect id="XMLID_51946_" x="62.1" y="30.1" transform="matrix(0.5098 0.8603 -0.8603 0.5098 57.8026 -38.1388)" fill="#FFFFFF" width="0.5" height="3.2"/>
		</g>
	</g>
	<g id="XMLID_51882_">
		<g id="XMLID_51893_">
			<rect id="XMLID_51894_" x="38.7" y="108.4" fill="#20313D" width="0.5" height="0.6"/>
		</g>
		<g id="XMLID_51885_">
			<path id="XMLID_51886_" fill="#20313D" d="M39.2,123.6h-0.5v-1.2h0.5V123.6z M39.2,121.2h-0.5V120h0.5V121.2z M39.2,118.8h-0.5
				v-1.2h0.5V118.8z M39.2,116.3h-0.5v-1.2h0.5V116.3z M39.2,113.9h-0.5v-1.2h0.5V113.9z M39.2,111.5h-0.5v-1.2h0.5V111.5z"/>
		</g>
		<g id="XMLID_51883_">
			<rect id="XMLID_51884_" x="38.7" y="124.9" fill="#20313D" width="0.5" height="0.6"/>
		</g>
	</g>
	<g id="XMLID_51880_">
		<path id="XMLID_51881_" fill="#20313D" d="M27.6,5.3l-2.2-1.1c-1.4-0.7-2.8-1-4.3-0.9L21,2.4c1.6-0.1,3.2,0.2,4.7,1L28,4.5
			L27.6,5.3z"/>
	</g>
	<g id="XMLID_51878_">
		<path id="XMLID_51879_" fill="#20313D" d="M12.6,21.9h-0.8V11.3c0-1.6,0.5-3.2,1.3-4.5c1.3-1.9,3.2-3.3,5.6-4l0.2,0.8
			c-2.2,0.6-4,1.9-5.2,3.7c-0.8,1.2-1.2,2.5-1.2,4V21.9z"/>
	</g>
	<g id="XMLID_51876_">
		<rect id="XMLID_51877_" x="11.7" y="24" fill="#20313D" width="0.8" height="6.2"/>
	</g>
	<g id="XMLID_51874_">
		<path id="XMLID_51875_" fill="#F6921E" d="M66,140.3l-0.7-0.4l1.3-2c1-1.6,1.6-3.4,1.6-5.3V112H69v20.6c0,2.1-0.6,4-1.7,5.8
			L66,140.3z"/>
	</g>
	<g id="XMLID_51872_">
		<rect id="XMLID_51873_" x="68.2" y="103.1" fill="#1595EF" width="0.8" height="6.7"/>
	</g>
	<g id="XMLID_51754_">
		<g id="XMLID_51869_">
			<g id="XMLID_51870_">
				<path id="XMLID_51871_" fill="#20313D" d="M57.4,46.3c0.1,0.9,0.9,1.7,1.1,1.8c0,0,0,0,0,0c-0.1,0-0.9-0.1-1.1,0.6c0,0,0,0,0,0
					c-0.1-0.9-0.9-1.7-1.1-1.8c0,0,0,0,0,0C56.5,47,57.3,47.1,57.4,46.3C57.4,46.3,57.4,46.3,57.4,46.3z"/>
			</g>
		</g>
		<g id="XMLID_51866_">
			<g id="XMLID_51867_">
				<path id="XMLID_51868_" fill="#20313D" d="M54.3,44.6c0.1,0.9,0.9,1.7,1.1,1.8c0,0,0,0,0,0c-0.1,0-0.9-0.1-1.1,0.6c0,0,0,0,0,0
					c-0.1-0.9-0.9-1.7-1.1-1.8c0,0,0,0,0,0C53.4,45.2,54.2,45.3,54.3,44.6C54.3,44.5,54.3,44.6,54.3,44.6z"/>
			</g>
		</g>
		<g id="XMLID_51863_">
			<g id="XMLID_51864_">
				<path id="XMLID_51865_" fill="#20313D" d="M51.3,42.8c0.1,0.9,0.9,1.7,1.1,1.8c0,0,0,0,0,0c-0.1,0-0.9-0.1-1.1,0.6c0,0,0,0,0,0
					c-0.1-0.9-0.9-1.7-1.1-1.8c0,0,0,0,0,0C50.3,43.4,51.1,43.5,51.3,42.8C51.3,42.8,51.3,42.8,51.3,42.8z"/>
			</g>
		</g>
		<g id="XMLID_51860_">
			<g id="XMLID_51861_">
				<path id="XMLID_51862_" fill="#20313D" d="M48.2,41c0.1,0.9,0.9,1.7,1.1,1.8c0,0,0,0,0,0c-0.1,0-0.9-0.1-1.1,0.6c0,0,0,0,0,0
					c-0.1-0.9-0.9-1.7-1.1-1.8c0,0,0,0,0,0C47.3,41.6,48.1,41.7,48.2,41C48.2,41,48.2,41,48.2,41z"/>
			</g>
		</g>
		<g id="XMLID_51857_">
			<g id="XMLID_51858_">
				<path id="XMLID_51859_" fill="#20313D" d="M45.1,39.2c0.1,0.9,0.9,1.7,1.1,1.8c0,0,0,0,0,0c-0.1,0-0.9-0.1-1.1,0.6c0,0,0,0,0,0
					C45,40.9,44.2,40,44,39.9c0,0,0,0,0,0C44.2,39.9,45,39.9,45.1,39.2C45.1,39.2,45.1,39.2,45.1,39.2z"/>
			</g>
		</g>
		<g id="XMLID_51854_">
			<g id="XMLID_51855_">
				<path id="XMLID_51856_" fill="#20313D" d="M42,37.5c0.1,0.9,0.9,1.7,1.1,1.8c0,0,0,0,0,0c-0.1,0-0.9-0.1-1.1,0.6c0,0,0,0,0,0
					c-0.1-0.9-0.9-1.7-1.1-1.8c0,0,0,0,0,0C41.1,38.1,41.9,38.2,42,37.5C42,37.4,42,37.4,42,37.5z"/>
			</g>
		</g>
		<g id="XMLID_51851_">
			<g id="XMLID_51852_">
				<path id="XMLID_51853_" fill="#20313D" d="M39,35.7c0.1,0.9,0.9,1.7,1.1,1.8c0,0,0,0,0,0c-0.1,0-0.9-0.1-1.1,0.6c0,0,0,0,0,0
					c-0.1-0.9-0.9-1.7-1.1-1.8c0,0,0,0,0,0C38,36.3,38.8,36.4,39,35.7C39,35.7,39,35.7,39,35.7z"/>
			</g>
		</g>
		<g id="XMLID_51848_">
			<g id="XMLID_51849_">
				<path id="XMLID_51850_" fill="#20313D" d="M35.9,33.9c0.1,0.9,0.9,1.7,1.1,1.8c0,0,0,0,0,0c-0.1,0-0.9-0.1-1.1,0.6c0,0,0,0,0,0
					c-0.1-0.9-0.9-1.7-1.1-1.8c0,0,0,0,0,0C35,34.5,35.8,34.6,35.9,33.9C35.9,33.9,35.9,33.9,35.9,33.9z"/>
			</g>
		</g>
		<g id="XMLID_51845_">
			<g id="XMLID_51846_">
				<path id="XMLID_51847_" fill="#20313D" d="M32.8,32.1c0.1,0.9,0.9,1.7,1.1,1.8c0,0,0,0,0,0c-0.1,0-0.9-0.1-1.1,0.6c0,0,0,0,0,0
					c-0.1-0.9-0.9-1.7-1.1-1.8c0,0,0,0,0,0C31.9,32.8,32.7,32.8,32.8,32.1C32.8,32.1,32.8,32.1,32.8,32.1z"/>
			</g>
		</g>
		<g id="XMLID_51842_">
			<g id="XMLID_51843_">
				<path id="XMLID_51844_" fill="#20313D" d="M57.4,42.8c0.1,0.9,0.9,1.7,1.1,1.8c0,0,0,0,0,0c-0.1,0-0.9-0.1-1.1,0.6c0,0,0,0,0,0
					c-0.1-0.9-0.9-1.7-1.1-1.8c0,0,0,0,0,0C56.5,43.4,57.3,43.5,57.4,42.8C57.4,42.8,57.4,42.8,57.4,42.8z"/>
			</g>
		</g>
		<g id="XMLID_51839_">
			<g id="XMLID_51840_">
				<path id="XMLID_51841_" fill="#20313D" d="M54.3,41c0.1,0.9,0.9,1.7,1.1,1.8c0,0,0,0,0,0c-0.1,0-0.9-0.1-1.1,0.6c0,0,0,0,0,0
					c-0.1-0.9-0.9-1.7-1.1-1.8c0,0,0,0,0,0C53.4,41.6,54.2,41.7,54.3,41C54.3,41,54.3,41,54.3,41z"/>
			</g>
		</g>
		<g id="XMLID_51836_">
			<g id="XMLID_51837_">
				<path id="XMLID_51838_" fill="#20313D" d="M51.3,39.2c0.1,0.9,0.9,1.7,1.1,1.8c0,0,0,0,0,0c-0.1,0-0.9-0.1-1.1,0.6c0,0,0,0,0,0
					c-0.1-0.9-0.9-1.7-1.1-1.8c0,0,0,0,0,0C50.3,39.8,51.1,39.9,51.3,39.2C51.3,39.2,51.3,39.2,51.3,39.2z"/>
			</g>
		</g>
		<g id="XMLID_51833_">
			<g id="XMLID_51834_">
				<path id="XMLID_51835_" fill="#20313D" d="M48.2,37.4c0.1,0.9,0.9,1.7,1.1,1.8c0,0,0,0,0,0c-0.1,0-0.9-0.1-1.1,0.6c0,0,0,0,0,0
					c-0.1-0.9-0.9-1.7-1.1-1.8c0,0,0,0,0,0C47.3,38.1,48.1,38.2,48.2,37.4C48.2,37.4,48.2,37.4,48.2,37.4z"/>
			</g>
		</g>
		<g id="XMLID_51830_">
			<g id="XMLID_51831_">
				<path id="XMLID_51832_" fill="#20313D" d="M45.1,35.7c0.1,0.9,0.9,1.7,1.1,1.8c0,0,0,0,0,0c-0.1,0-0.9-0.1-1.1,0.6c0,0,0,0,0,0
					c-0.1-0.9-0.9-1.7-1.1-1.8c0,0,0,0,0,0C44.2,36.3,45,36.4,45.1,35.7C45.1,35.7,45.1,35.7,45.1,35.7z"/>
			</g>
		</g>
		<g id="XMLID_51827_">
			<g id="XMLID_51828_">
				<path id="XMLID_51829_" fill="#20313D" d="M42,33.9c0.1,0.9,0.9,1.7,1.1,1.8c0,0,0,0,0,0c-0.1,0-0.9-0.1-1.1,0.6c0,0,0,0,0,0
					c-0.1-0.9-0.9-1.7-1.1-1.8c0,0,0,0,0,0C41.1,34.5,41.9,34.6,42,33.9C42,33.9,42,33.9,42,33.9z"/>
			</g>
		</g>
		<g id="XMLID_51824_">
			<g id="XMLID_51825_">
				<path id="XMLID_51826_" fill="#20313D" d="M39,32.1c0.1,0.9,0.9,1.7,1.1,1.8c0,0,0,0,0,0c-0.1,0-0.9-0.1-1.1,0.6c0,0,0,0,0,0
					c-0.1-0.9-0.9-1.7-1.1-1.8c0,0,0,0,0,0C38,32.7,38.8,32.8,39,32.1C39,32.1,39,32.1,39,32.1z"/>
			</g>
		</g>
		<g id="XMLID_51821_">
			<g id="XMLID_51822_">
				<path id="XMLID_51823_" fill="#20313D" d="M35.9,30.3c0.1,0.9,0.9,1.7,1.1,1.8c0,0,0,0,0,0c-0.1,0-0.9-0.1-1.1,0.6c0,0,0,0,0,0
					C35.8,32,35,31.1,34.8,31c0,0,0,0,0,0C35,31,35.8,31.1,35.9,30.3C35.9,30.3,35.9,30.3,35.9,30.3z"/>
			</g>
		</g>
		<g id="XMLID_51818_">
			<g id="XMLID_51819_">
				<path id="XMLID_51820_" fill="#20313D" d="M32.8,28.6c0.1,0.9,0.9,1.7,1.1,1.8c0,0,0,0,0,0c-0.1,0-0.9-0.1-1.1,0.6c0,0,0,0,0,0
					c-0.1-0.9-0.9-1.7-1.1-1.8c0,0,0,0,0,0C31.9,29.2,32.7,29.3,32.8,28.6C32.8,28.5,32.8,28.6,32.8,28.6z"/>
			</g>
		</g>
		<g id="XMLID_51815_">
			<g id="XMLID_51816_">
				<path id="XMLID_51817_" fill="#20313D" d="M57.4,39.2c0.1,0.9,0.9,1.7,1.1,1.8c0,0,0,0,0,0c-0.1,0-0.9-0.1-1.1,0.6c0,0,0,0,0,0
					c-0.1-0.9-0.9-1.7-1.1-1.8c0,0,0,0,0,0C56.5,39.8,57.3,39.9,57.4,39.2C57.4,39.2,57.4,39.2,57.4,39.2z"/>
			</g>
		</g>
		<g id="XMLID_51812_">
			<g id="XMLID_51813_">
				<path id="XMLID_51814_" fill="#20313D" d="M54.3,37.4c0.1,0.9,0.9,1.7,1.1,1.8c0,0,0,0,0,0c-0.1,0-0.9-0.1-1.1,0.6c0,0,0,0,0,0
					c-0.1-0.9-0.9-1.7-1.1-1.8c0,0,0,0,0,0C53.4,38.1,54.2,38.1,54.3,37.4C54.3,37.4,54.3,37.4,54.3,37.4z"/>
			</g>
		</g>
		<g id="XMLID_51809_">
			<g id="XMLID_51810_">
				<path id="XMLID_51811_" fill="#20313D" d="M51.3,35.7c0.1,0.9,0.9,1.7,1.1,1.8c0,0,0,0,0,0c-0.1,0-0.9-0.1-1.1,0.6c0,0,0,0,0,0
					c-0.1-0.9-0.9-1.7-1.1-1.8c0,0,0,0,0,0C50.3,36.3,51.1,36.4,51.3,35.7C51.3,35.6,51.3,35.6,51.3,35.7z"/>
			</g>
		</g>
		<g id="XMLID_51806_">
			<g id="XMLID_51807_">
				<path id="XMLID_51808_" fill="#20313D" d="M48.2,33.9c0.1,0.9,0.9,1.7,1.1,1.8c0,0,0,0,0,0c-0.1,0-0.9-0.1-1.1,0.6c0,0,0,0,0,0
					c-0.1-0.9-0.9-1.7-1.1-1.8c0,0,0,0,0,0C47.3,34.5,48.1,34.6,48.2,33.9C48.2,33.9,48.2,33.9,48.2,33.9z"/>
			</g>
		</g>
		<g id="XMLID_51803_">
			<g id="XMLID_51804_">
				<path id="XMLID_51805_" fill="#20313D" d="M45.1,32.1c0.1,0.9,0.9,1.7,1.1,1.8c0,0,0,0,0,0c-0.1,0-0.9-0.1-1.1,0.6c0,0,0,0,0,0
					c-0.1-0.9-0.9-1.7-1.1-1.8c0,0,0,0,0,0C44.2,32.7,45,32.8,45.1,32.1C45.1,32.1,45.1,32.1,45.1,32.1z"/>
			</g>
		</g>
		<g id="XMLID_51800_">
			<g id="XMLID_51801_">
				<path id="XMLID_51802_" fill="#20313D" d="M42,30.3c0.1,0.9,0.9,1.7,1.1,1.8c0,0,0,0,0,0c-0.1,0-0.9-0.1-1.1,0.6c0,0,0,0,0,0
					c-0.1-0.9-0.9-1.7-1.1-1.8c0,0,0,0,0,0C41.1,31,41.9,31,42,30.3C42,30.3,42,30.3,42,30.3z"/>
			</g>
		</g>
		<g id="XMLID_51797_">
			<g id="XMLID_51798_">
				<path id="XMLID_51799_" fill="#20313D" d="M39,28.6c0.1,0.9,0.9,1.7,1.1,1.8c0,0,0,0,0,0c-0.1,0-0.9-0.1-1.1,0.6c0,0,0,0,0,0
					c-0.1-0.9-0.9-1.7-1.1-1.8c0,0,0,0,0,0C38,29.2,38.8,29.3,39,28.6C39,28.5,39,28.5,39,28.6z"/>
			</g>
		</g>
		<g id="XMLID_51794_">
			<g id="XMLID_51795_">
				<path id="XMLID_51796_" fill="#20313D" d="M35.9,26.8c0.1,0.9,0.9,1.7,1.1,1.8c0,0,0,0,0,0c-0.1,0-0.9-0.1-1.1,0.6c0,0,0,0,0,0
					c-0.1-0.9-0.9-1.7-1.1-1.8c0,0,0,0,0,0C35,27.4,35.8,27.5,35.9,26.8C35.9,26.8,35.9,26.8,35.9,26.8z"/>
			</g>
		</g>
		<g id="XMLID_51791_">
			<g id="XMLID_51792_">
				<path id="XMLID_51793_" fill="#20313D" d="M32.8,25c0.1,0.9,0.9,1.7,1.1,1.8c0,0,0,0,0,0c-0.1,0-0.9-0.1-1.1,0.6c0,0,0,0,0,0
					c-0.1-0.9-0.9-1.7-1.1-1.8c0,0,0,0,0,0C31.9,25.6,32.7,25.7,32.8,25C32.8,25,32.8,25,32.8,25z"/>
			</g>
		</g>
		<g id="XMLID_51788_">
			<g id="XMLID_51789_">
				<path id="XMLID_51790_" fill="#20313D" d="M29.7,30.4c0.1,0.9,0.9,1.7,1.1,1.8c0,0,0,0,0,0c-0.1,0-0.9-0.1-1.1,0.6c0,0,0,0,0,0
					c-0.1-0.9-0.9-1.7-1.1-1.8c0,0,0,0,0,0C28.8,31,29.6,31.1,29.7,30.4C29.7,30.3,29.7,30.3,29.7,30.4z"/>
			</g>
		</g>
		<g id="XMLID_51785_">
			<g id="XMLID_51786_">
				<path id="XMLID_51787_" fill="#20313D" d="M26.7,28.6c0.1,0.9,0.9,1.7,1.1,1.8c0,0,0,0,0,0c-0.1,0-0.9-0.1-1.1,0.6c0,0,0,0,0,0
					c-0.1-0.9-0.9-1.7-1.1-1.8c0,0,0,0,0,0C25.7,29.2,26.5,29.3,26.7,28.6C26.6,28.6,26.7,28.6,26.7,28.6z"/>
			</g>
		</g>
		<g id="XMLID_51782_">
			<g id="XMLID_51783_">
				<path id="XMLID_51784_" fill="#20313D" d="M23.6,26.8c0.1,0.9,0.9,1.7,1.1,1.8c0,0,0,0,0,0c-0.1,0-0.9-0.1-1.1,0.6c0,0,0,0,0,0
					c-0.1-0.9-0.9-1.7-1.1-1.8c0,0,0,0,0,0C22.6,27.4,23.5,27.5,23.6,26.8C23.6,26.8,23.6,26.8,23.6,26.8z"/>
			</g>
		</g>
		<g id="XMLID_51779_">
			<g id="XMLID_51780_">
				<path id="XMLID_51781_" fill="#20313D" d="M20.5,25c0.1,0.9,0.9,1.7,1.1,1.8c0,0,0,0,0,0c-0.1,0-0.9-0.1-1.1,0.6c0,0,0,0,0,0
					c-0.1-0.9-0.9-1.7-1.1-1.8c0,0,0,0,0,0C19.6,25.7,20.4,25.7,20.5,25C20.5,25,20.5,25,20.5,25z"/>
			</g>
		</g>
		<g id="XMLID_51776_">
			<g id="XMLID_51777_">
				<path id="XMLID_51778_" fill="#20313D" d="M29.7,26.8c0.1,0.9,0.9,1.7,1.1,1.8c0,0,0,0,0,0c-0.1,0-0.9-0.1-1.1,0.6c0,0,0,0,0,0
					c-0.1-0.9-0.9-1.7-1.1-1.8c0,0,0,0,0,0C28.8,27.4,29.6,27.5,29.7,26.8C29.7,26.8,29.7,26.8,29.7,26.8z"/>
			</g>
		</g>
		<g id="XMLID_51773_">
			<g id="XMLID_51774_">
				<path id="XMLID_51775_" fill="#20313D" d="M26.7,25c0.1,0.9,0.9,1.7,1.1,1.8c0,0,0,0,0,0c-0.1,0-0.9-0.1-1.1,0.6c0,0,0,0,0,0
					c-0.1-0.9-0.9-1.7-1.1-1.8c0,0,0,0,0,0C25.7,25.6,26.5,25.7,26.7,25C26.6,25,26.7,25,26.7,25z"/>
			</g>
		</g>
		<g id="XMLID_51770_">
			<g id="XMLID_51771_">
				<path id="XMLID_51772_" fill="#20313D" d="M23.6,23.2c0.1,0.9,0.9,1.7,1.1,1.8c0,0,0,0,0,0c-0.1,0-0.9-0.1-1.1,0.6c0,0,0,0,0,0
					c-0.1-0.9-0.9-1.7-1.1-1.8c0,0,0,0,0,0C22.6,23.9,23.5,23.9,23.6,23.2C23.6,23.2,23.6,23.2,23.6,23.2z"/>
			</g>
		</g>
		<g id="XMLID_51767_">
			<g id="XMLID_51768_">
				<path id="XMLID_51769_" fill="#20313D" d="M20.5,21.5c0.1,0.9,0.9,1.7,1.1,1.8c0,0,0,0,0,0c-0.1,0-0.9-0.1-1.1,0.6c0,0,0,0,0,0
					c-0.1-0.9-0.9-1.7-1.1-1.8c0,0,0,0,0,0C19.6,22.1,20.4,22.2,20.5,21.5C20.5,21.4,20.5,21.4,20.5,21.5z"/>
			</g>
		</g>
		<g id="XMLID_51764_">
			<g id="XMLID_51765_">
				<path id="XMLID_51766_" fill="#20313D" d="M29.7,23.2c0.1,0.9,0.9,1.7,1.1,1.8c0,0,0,0,0,0c-0.1,0-0.9-0.1-1.1,0.6c0,0,0,0,0,0
					c-0.1-0.9-0.9-1.7-1.1-1.8c0,0,0,0,0,0C28.8,23.9,29.6,23.9,29.7,23.2C29.7,23.2,29.7,23.2,29.7,23.2z"/>
			</g>
		</g>
		<g id="XMLID_51761_">
			<g id="XMLID_51762_">
				<path id="XMLID_51763_" fill="#20313D" d="M26.7,21.4c0.1,0.9,0.9,1.7,1.1,1.8c0,0,0,0,0,0c-0.1,0-0.9-0.1-1.1,0.6c0,0,0,0,0,0
					c-0.1-0.9-0.9-1.7-1.1-1.8c0,0,0,0,0,0C25.7,22.1,26.5,22.2,26.7,21.4C26.6,21.4,26.7,21.4,26.7,21.4z"/>
			</g>
		</g>
		<g id="XMLID_51758_">
			<g id="XMLID_51759_">
				<path id="XMLID_51760_" fill="#20313D" d="M23.6,19.7c0.1,0.9,0.9,1.7,1.1,1.8c0,0,0,0,0,0c-0.1,0-0.9-0.1-1.1,0.6c0,0,0,0,0,0
					c-0.1-0.9-0.9-1.7-1.1-1.8c0,0,0,0,0,0C22.6,20.3,23.5,20.4,23.6,19.7C23.6,19.7,23.6,19.7,23.6,19.7z"/>
			</g>
		</g>
		<g id="XMLID_51755_">
			<g id="XMLID_51756_">
				<path id="XMLID_51757_" fill="#20313D" d="M20.5,17.9c0.1,0.9,0.9,1.7,1.1,1.8c0,0,0,0,0,0c-0.1,0-0.9-0.1-1.1,0.6c0,0,0,0,0,0
					c-0.1-0.9-0.9-1.7-1.1-1.8c0,0,0,0,0,0C19.6,18.5,20.4,18.6,20.5,17.9C20.5,17.9,20.5,17.9,20.5,17.9z"/>
			</g>
		</g>
	</g>
	<g id="XMLID_51602_">
		<path id="XMLID_51603_" fill="#1595EF" d="M70.4,40.1c-0.8,0-1.4-0.6-1.4-1.4c0-0.8,0.6-1.4,1.4-1.4c0.8,0,1.4,0.6,1.4,1.4
			C71.8,39.4,71.2,40.1,70.4,40.1z M70.4,37.9c-0.4,0-0.8,0.3-0.8,0.8c0,0.4,0.3,0.8,0.8,0.8s0.8-0.3,0.8-0.8
			C71.2,38.2,70.9,37.9,70.4,37.9z"/>
	</g>
	<g id="XMLID_51588_">
		<g id="XMLID_51591_">
			<rect id="XMLID_51592_" x="10.6" y="59" fill="#F6921E" width="0.6" height="3.4"/>
		</g>
		<g id="XMLID_51589_">
			<rect id="XMLID_51590_" x="9.2" y="60.4" fill="#F6921E" width="3.4" height="0.6"/>
		</g>
	</g>
	<g id="XMLID_51583_">
		<g id="XMLID_51586_">
			<rect id="XMLID_51587_" x="72.9" y="101.2" fill="#F6921E" width="0.6" height="3.4"/>
		</g>
		<g id="XMLID_51584_">
			<rect id="XMLID_51585_" x="71.5" y="102.6" fill="#F6921E" width="3.4" height="0.6"/>
		</g>
	</g>
	<g id="XMLID_51570_">
		<path id="XMLID_51571_" fill="#1595EF" d="M22.2,111.7H21c-0.4,0-0.8-0.4-0.8-0.8v-1.2c0-0.4,0.4-0.8,0.8-0.8h1.2
			c0.4,0,0.8,0.4,0.8,0.8v1.2C23,111.4,22.6,111.7,22.2,111.7z"/>
	</g>
	<g id="XMLID_4_">
		<path id="XMLID_6_" fill="#E6E7E8" d="M22,111.2h-0.8c-0.3,0-0.5-0.2-0.5-0.5V110c0-0.3,0.2-0.5,0.5-0.5H22c0.3,0,0.5,0.2,0.5,0.5
			v0.8C22.4,111,22.2,111.2,22,111.2z"/>
	</g>
	<g>
		<g>
			<g enable-background="new    ">
				<defs>
					<polygon id="SVGID_1_" enable-background="new    " points="26.8,77.4 27.9,46.4 50.9,59.7 49.8,90.7 					"/>
				</defs>
				<clipPath id="SVGID_2_">
					<use xlink:href="#SVGID_1_"  overflow="visible"/>
				</clipPath>
				<g clip-path="url(#SVGID_2_)">
					<g>
						<g>
							<g>
								<path fill="#20313D" d="M46.5,65.1l-3.8,13.4l-2.4-1.4l-2.8-17.2l2.6,1.5l1.5,12.2l2.3-10L46.5,65.1 M32.9,72.9l0.5-15.3
									l2.3,1.3l-0.4,12.7l4,2.3l-0.1,2.6L32.9,72.9 M45.7,56.7l-12.7-7.3c-2.9-1.7-5.3,0.1-5.4,4l-0.6,17c-0.1,3.8,2.1,8.3,4.9,10
									l12.7,7.3c2.8,1.6,5.3-0.2,5.4-4l0.6-17C50.8,62.8,48.5,58.3,45.7,56.7"/>
								<polyline fill="#FFFFFF" points="35.7,58.9 33.4,57.5 32.9,72.9 39.2,76.5 39.3,73.9 35.3,71.6 35.7,58.9 								"/>
								<polyline fill="#FFFFFF" points="46.5,65.1 43.9,63.6 41.6,73.6 40.1,61.4 37.5,59.9 40.3,77.2 42.6,78.5 46.5,65.1 
																	"/>
							</g>
						</g>
					</g>
				</g>
			</g>
		</g>
	</g>
	<g id="New_Symbol">
		<g>
			<g enable-background="new    ">
				<defs>
					<polygon id="SVGID_3_" enable-background="new    " points="27.7,77.2 28.9,45.8 52.2,59.3 51.1,90.7 					"/>
				</defs>
				<clipPath id="SVGID_4_">
					<use xlink:href="#SVGID_3_"  overflow="visible"/>
				</clipPath>
				<g clip-path="url(#SVGID_4_)">
					<g>
						<g>
							<g>
								<path fill="#20313D" d="M33.1,79.9c-2.8-1.6-4.9-5.9-4.8-9.6l0.6-17c0.1-3.8,2.4-5.5,5.2-3.8l12.7,7.3
									c2.8,1.6,4.9,5.9,4.8,9.6l-0.6,17c0,1.8-0.6,3.1-1.6,3.9c-1,0.7-2.3,0.7-3.6,0L33.1,79.9 M46.9,56.2l-12.7-7.3
									c-3-1.7-5.4,0.1-5.6,4.1l-0.6,17c-0.1,4,2.1,8.6,5.1,10.3l12.7,7.3c1.4,0.8,2.8,0.8,3.9,0c1.1-0.8,1.7-2.3,1.7-4.1l0.6-17
									C52.1,62.5,49.8,57.9,46.9,56.2"/>
							</g>
						</g>
					</g>
				</g>
			</g>
		</g>
	</g>
	<g>
		<g>
			<g enable-background="new    ">
				<defs>
					<polygon id="SVGID_5_" enable-background="new    " points="25.1,100.4 25.5,88.6 53.1,104.6 52.7,116.3 					"/>
				</defs>
				<clipPath id="SVGID_6_">
					<use xlink:href="#SVGID_5_"  overflow="visible"/>
				</clipPath>
				<g clip-path="url(#SVGID_6_)">
					<g>
						<g>
							<g>
								<path fill="#20313D" d="M29.8,95.5l-0.3-0.2l0,1.1l0.3,0.2c0.1,0.1,0.2,0.1,0.3,0c0.1-0.1,0.1-0.2,0.1-0.4
									C30.1,95.9,30,95.6,29.8,95.5 M36.2,99.2l-0.4-0.2l0,1.2l0.4,0.2c0.1,0.1,0.2,0.1,0.3,0c0.1-0.1,0.1-0.2,0.1-0.4
									c0-0.2,0-0.4-0.1-0.5C36.4,99.3,36.3,99.2,36.2,99.2 M38.5,100.4c-0.2-0.1-0.3-0.1-0.3,0c-0.1,0.1-0.1,0.3-0.1,0.7l0,0.7
									c0,0.3,0,0.6,0.1,0.8c0.1,0.2,0.2,0.3,0.3,0.4c0.2,0.1,0.3,0.1,0.3,0c0.1-0.1,0.1-0.3,0.1-0.7l0-0.7c0-0.3,0-0.6-0.1-0.8
									C38.7,100.7,38.6,100.5,38.5,100.4 M28.8,98.1l0.1-3.8l0.9,0.5c0.3,0.2,0.5,0.4,0.7,0.7c0.2,0.3,0.2,0.6,0.2,1
									c0,0.5-0.2,0.8-0.4,0.8l0.4,1.9l0,0l-0.6-0.4l-0.4-1.6l-0.3-0.2l0,1.4L28.8,98.1 M31,99.4l0.1-3.8l1.6,0.9l0,0.6l-1.1-0.6
									l0,0.9l0.9,0.5l0,0.6l-0.9-0.5l0,1l1.1,0.6l0,0.6L31,99.4 M35.1,101.8l0.1-3.8l1,0.6c0.3,0.2,0.5,0.4,0.7,0.7
									c0.2,0.3,0.2,0.7,0.2,1.1c0,0.4-0.1,0.6-0.3,0.7c-0.2,0.1-0.4,0.1-0.7-0.1l-0.4-0.2l0,1.3L35.1,101.8 M41.2,104l0.1-2.5
									l0.6,0.3l-0.1,3.8l-0.6-0.3l-0.7-3l-0.1,2.5l-0.6-0.3l0.1-3.8l0.6,0.3L41.2,104 M44.4,107.1l0.1-3.8l0.6,0.3l-0.1,3.8
									L44.4,107.1 M47.6,105.1l-1,3.3l-0.6-0.3l-0.7-4.3l0.6,0.4l0.4,3l0.6-2.5L47.6,105.1 M47.8,109.1l0.1-3.8l1.6,0.9l0,0.6
									l-1.1-0.6l0,0.9l0.9,0.5l0,0.6l-0.9-0.5l0,1l1.1,0.6l0,0.6L47.8,109.1 M33.9,100.5c0.2,0.1,0.3,0,0.3-0.3
									c0-0.2,0-0.3-0.1-0.4c-0.1-0.1-0.2-0.3-0.3-0.4c-0.3-0.3-0.5-0.6-0.6-0.9C33.1,98.3,33,98,33,97.7c0-0.3,0.1-0.5,0.3-0.6
									c0.2-0.1,0.4-0.1,0.7,0.1c0.2,0.1,0.3,0.2,0.5,0.4c0.1,0.2,0.2,0.4,0.3,0.6c0.1,0.2,0.1,0.4,0.1,0.7l-0.6-0.3
									c0-0.2,0-0.3-0.1-0.5c0-0.1-0.1-0.2-0.2-0.3c-0.1-0.1-0.2-0.1-0.2,0c-0.1,0-0.1,0.1-0.1,0.3c0,0.1,0,0.2,0.1,0.3
									c0.1,0.1,0.2,0.3,0.3,0.5c0.3,0.3,0.5,0.6,0.6,0.8c0.1,0.3,0.2,0.5,0.2,0.8c0,0.3-0.1,0.5-0.3,0.6c-0.2,0.1-0.4,0.1-0.7-0.1
									c-0.2-0.1-0.3-0.3-0.5-0.4c-0.1-0.2-0.3-0.4-0.3-0.6c-0.1-0.2-0.1-0.5-0.1-0.7l0.6,0.3c0,0.2,0,0.4,0.1,0.5
									C33.6,100.3,33.7,100.4,33.9,100.5 M38.4,103.7c-0.3-0.2-0.6-0.5-0.7-0.9c-0.2-0.4-0.3-0.8-0.2-1.3l0-0.7
									c0-0.5,0.1-0.9,0.3-1.1c0.2-0.2,0.4-0.2,0.8,0c0.3,0.2,0.6,0.5,0.7,0.9c0.2,0.4,0.3,0.9,0.2,1.4l0,0.6c0,0.5-0.1,0.9-0.3,1
									C38.9,103.9,38.7,103.9,38.4,103.7 M43.1,105.8c0.2,0.1,0.3,0,0.3-0.3c0-0.2,0-0.3-0.1-0.4c-0.1-0.1-0.2-0.3-0.3-0.4
									c-0.3-0.3-0.5-0.6-0.6-0.9c-0.1-0.3-0.2-0.5-0.2-0.8c0-0.3,0.1-0.5,0.3-0.6c0.2-0.1,0.4-0.1,0.7,0.1
									c0.2,0.1,0.3,0.2,0.5,0.4c0.1,0.2,0.2,0.4,0.3,0.6c0.1,0.2,0.1,0.4,0.1,0.7l-0.6-0.3c0-0.2,0-0.3-0.1-0.5
									c0-0.1-0.1-0.2-0.2-0.3c-0.1-0.1-0.2-0.1-0.2,0c-0.1,0-0.1,0.1-0.1,0.3c0,0.1,0,0.2,0.1,0.3c0.1,0.1,0.2,0.3,0.3,0.5
									c0.3,0.3,0.5,0.6,0.6,0.8c0.1,0.3,0.2,0.5,0.2,0.8c0,0.3-0.1,0.5-0.3,0.6c-0.2,0.1-0.4,0.1-0.7-0.1
									c-0.2-0.1-0.3-0.3-0.5-0.4c-0.1-0.2-0.3-0.4-0.3-0.6c-0.1-0.2-0.1-0.5-0.1-0.7l0.6,0.3c0,0.2,0,0.4,0.1,0.5
									C42.9,105.6,43,105.8,43.1,105.8 M50.9,103.3L27.7,89.9c-1.2-0.7-2.3,0.1-2.3,1.7l-0.2,5.8c-0.1,1.6,0.9,3.5,2.1,4.3
									L50.5,115c1.2,0.7,2.3-0.1,2.3-1.7l0.2-5.8C53.1,105.9,52.1,104,50.9,103.3"/>
								<path fill="#FFFFFF" d="M29.4,96.4l0-1.1l0.3,0.2c0.2,0.1,0.3,0.4,0.3,0.8c0,0.2,0,0.3-0.1,0.4c-0.1,0.1-0.1,0.1-0.3,0
									L29.4,96.4 M29.8,94.8l-0.9-0.5l-0.1,3.8l0.6,0.3l0-1.4l0.3,0.2l0.4,1.6l0.6,0.4l0,0l-0.4-1.9c0.3,0,0.4-0.3,0.4-0.8
									c0-0.4-0.1-0.7-0.2-1C30.3,95.2,30.1,95,29.8,94.8"/>
								<polyline fill="#FFFFFF" points="32.8,96.5 31.1,95.6 31,99.4 32.6,100.3 32.7,99.7 31.6,99.1 31.6,98.1 32.5,98.6 32.5,98 
									31.7,97.5 31.7,96.6 32.7,97.2 32.8,96.5 								"/>
								<path fill="#FFFFFF" d="M34,97.2c-0.3-0.1-0.5-0.2-0.7-0.1c-0.2,0.1-0.3,0.3-0.3,0.6c0,0.3,0,0.5,0.2,0.8
									c0.1,0.3,0.3,0.6,0.6,0.9c0.1,0.2,0.3,0.3,0.3,0.4c0.1,0.1,0.1,0.2,0.1,0.4c0,0.3-0.1,0.4-0.3,0.3c-0.1-0.1-0.2-0.2-0.3-0.3
									c-0.1-0.1-0.1-0.3-0.1-0.5l-0.6-0.3c0,0.3,0,0.5,0.1,0.7c0.1,0.2,0.2,0.5,0.3,0.6c0.1,0.2,0.3,0.3,0.5,0.4
									c0.3,0.2,0.5,0.2,0.7,0.1c0.2-0.1,0.3-0.3,0.3-0.6c0-0.3,0-0.6-0.2-0.8c-0.1-0.3-0.3-0.6-0.6-0.8c-0.2-0.2-0.3-0.3-0.3-0.5
									c-0.1-0.1-0.1-0.2-0.1-0.3c0-0.1,0-0.2,0.1-0.3c0.1,0,0.1,0,0.2,0c0.1,0.1,0.2,0.2,0.2,0.3c0.1,0.1,0.1,0.3,0.1,0.5l0.6,0.3
									c0-0.2,0-0.4-0.1-0.7c-0.1-0.2-0.2-0.4-0.3-0.6C34.3,97.4,34.2,97.3,34,97.2"/>
								<path fill="#FFFFFF" d="M35.8,100.1l0-1.2l0.4,0.2c0.1,0.1,0.2,0.2,0.2,0.3c0.1,0.1,0.1,0.3,0.1,0.5c0,0.2,0,0.3-0.1,0.4
									c-0.1,0.1-0.1,0.1-0.3,0L35.8,100.1 M36.2,98.5l-1-0.6l-0.1,3.8l0.6,0.3l0-1.3l0.4,0.2c0.3,0.2,0.5,0.2,0.7,0.1
									c0.2-0.1,0.3-0.4,0.3-0.7c0-0.4-0.1-0.7-0.2-1.1C36.7,98.9,36.5,98.7,36.2,98.5"/>
								<path fill="#FFFFFF" d="M38.4,103.1c-0.2-0.1-0.3-0.2-0.3-0.4c-0.1-0.2-0.1-0.5-0.1-0.8l0-0.7c0-0.3,0.1-0.6,0.1-0.7
									c0.1-0.1,0.2-0.1,0.3,0c0.2,0.1,0.3,0.2,0.3,0.4c0.1,0.2,0.1,0.5,0.1,0.8l0,0.7c0,0.3-0.1,0.5-0.1,0.7
									C38.6,103.1,38.5,103.2,38.4,103.1 M38.5,99.8c-0.3-0.2-0.6-0.2-0.8,0c-0.2,0.2-0.3,0.5-0.3,1.1l0,0.7
									c0,0.5,0.1,0.9,0.2,1.3c0.2,0.4,0.4,0.7,0.7,0.9c0.3,0.2,0.6,0.2,0.8,0c0.2-0.2,0.3-0.5,0.3-1l0-0.6c0-0.5-0.1-1-0.2-1.4
									C39.1,100.3,38.8,100,38.5,99.8"/>
								<polyline fill="#FFFFFF" points="41.9,101.8 41.3,101.5 41.2,104 40.5,101 39.9,100.7 39.8,104.5 40.4,104.8 40.5,102.3 
									41.2,105.3 41.8,105.6 41.9,101.8 								"/>
								<path fill="#FFFFFF" d="M43.3,102.5c-0.3-0.1-0.5-0.2-0.7-0.1c-0.2,0.1-0.3,0.3-0.3,0.6c0,0.3,0,0.5,0.2,0.8
									c0.1,0.3,0.3,0.6,0.6,0.9c0.1,0.2,0.3,0.3,0.3,0.4c0.1,0.1,0.1,0.2,0.1,0.4c0,0.3-0.1,0.4-0.3,0.3c-0.1-0.1-0.2-0.2-0.3-0.3
									c-0.1-0.1-0.1-0.3-0.1-0.5l-0.6-0.3c0,0.3,0,0.5,0.1,0.7c0.1,0.2,0.2,0.5,0.3,0.6c0.1,0.2,0.3,0.3,0.5,0.4
									c0.3,0.2,0.5,0.2,0.7,0.1c0.2-0.1,0.3-0.3,0.3-0.6c0-0.3,0-0.6-0.2-0.8c-0.1-0.3-0.3-0.6-0.6-0.8c-0.2-0.2-0.3-0.3-0.3-0.5
									c-0.1-0.1-0.1-0.2-0.1-0.3c0-0.1,0-0.2,0.1-0.3c0.1,0,0.1,0,0.2,0c0.1,0.1,0.2,0.2,0.2,0.3c0.1,0.1,0.1,0.3,0.1,0.5l0.6,0.3
									c0-0.2,0-0.4-0.1-0.7c-0.1-0.2-0.2-0.4-0.3-0.6C43.6,102.8,43.4,102.6,43.3,102.5"/>
								<polyline fill="#FFFFFF" points="45.1,103.7 44.5,103.3 44.4,107.1 45,107.5 45.1,103.7 								"/>
								<polyline fill="#FFFFFF" points="47.6,105.1 47,104.7 46.4,107.2 46.1,104.2 45.4,103.8 46.1,108.1 46.7,108.5 47.6,105.1 
																	"/>
								<polyline fill="#FFFFFF" points="49.5,106.2 47.9,105.3 47.8,109.1 49.4,110 49.4,109.4 48.4,108.8 48.4,107.8 49.3,108.3 
									49.3,107.7 48.4,107.1 48.5,106.2 49.5,106.8 49.5,106.2 								"/>
							</g>
						</g>
					</g>
				</g>
			</g>
		</g>
	</g>
</g>
</svg>
