<?xml version="1.0" encoding="utf-8"?>
<!-- Generator: Adobe Illustrator 18.0.0, SVG Export Plug-In . SVG Version: 6.00 Build 0)  -->
<!DOCTYPE svg PUBLIC "-//W3C//DTD SVG 1.1//EN" "http://www.w3.org/Graphics/SVG/1.1/DTD/svg11.dtd">
<svg version="1.1" id="Layer_1" xmlns="http://www.w3.org/2000/svg" xmlns:xlink="http://www.w3.org/1999/xlink" x="0px" y="0px"
	 viewBox="200.3 0 559.5 560" enable-background="new 200.3 0 559.5 560" xml:space="preserve">
<path fill="#FFFFFF" d="M634,559.7H326c-69.9,0-125.8-57.4-125.8-125.8V126C200.3,56.1,256.1,0.3,326,0.3H634
	c68.4,0,125.8,55.8,125.8,125.8V434C760.3,502.3,702.3,559.7,634,559.7z"/>
<g>
	<g>
		<path fill="#20313D" d="M397.5,371.3h98.1v46.4h-154V141.2h55.8V371.3L397.5,371.3L397.5,371.3z"/>
		<path fill="#20313D" d="M549.9,342.1l46.4-200.4h62.1l-79.3,276.6h-57.4l-80.9-276.6H503L549.9,342.1z"/>
	</g>
</g>
<rect x="-348" y="36" fill="#20313D" width="172" height="176"/>
</svg>
